<mxfile host="app.diagrams.net" agent="Mozilla/5.0 (Windows NT 10.0; Win64; x64) AppleWebKit/537.36 (KHTML, like Gecko) Chrome/137.0.0.0 Safari/537.36" version="27.1.5">
  <diagram name="PÃ¡gina-1" id="6ojaZ1nRalzhiPSgpriF">
    <mxGraphModel grid="1" page="1" gridSize="10" guides="1" tooltips="1" connect="1" arrows="1" fold="1" pageScale="1" pageWidth="827" pageHeight="1169" math="0" shadow="0">
      <root>
        <mxCell id="0" />
        <mxCell id="1" parent="0" />
        <mxCell id="8uNS08LPuNOPIwLh3YbV-2" value="Para cada f en flows" style="whiteSpace=wrap;strokeWidth=2;" vertex="1" parent="1">
          <mxGeometry x="1019" y="170" width="205" height="54" as="geometry" />
        </mxCell>
        <mxCell id="8uNS08LPuNOPIwLh3YbV-3" value="f tiene route" style="rhombus;strokeWidth=2;whiteSpace=wrap;" vertex="1" parent="1">
          <mxGeometry x="1049" y="300" width="145" height="145" as="geometry" />
        </mxCell>
        <mxCell id="8uNS08LPuNOPIwLh3YbV-4" value="Siguiente flujo" style="whiteSpace=wrap;strokeWidth=2;" vertex="1" parent="1">
          <mxGeometry x="1007" y="1224" width="165" height="54" as="geometry" />
        </mxCell>
        <mxCell id="8uNS08LPuNOPIwLh3YbV-5" value="route = f.route" style="whiteSpace=wrap;strokeWidth=2;" vertex="1" parent="1">
          <mxGeometry x="1089" y="518" width="166" height="54" as="geometry" />
        </mxCell>
        <mxCell id="8uNS08LPuNOPIwLh3YbV-6" value="any node en inactive_nodes_set&#xa;for node en route" style="whiteSpace=wrap;strokeWidth=2;" vertex="1" parent="1">
          <mxGeometry x="1042" y="622" width="260" height="102" as="geometry" />
        </mxCell>
        <mxCell id="8uNS08LPuNOPIwLh3YbV-7" value="Ruta afectada" style="rhombus;strokeWidth=2;whiteSpace=wrap;" vertex="1" parent="1">
          <mxGeometry x="1094" y="797" width="154" height="154" as="geometry" />
        </mxCell>
        <mxCell id="8uNS08LPuNOPIwLh3YbV-8" value="print flujo afectado&#xa;f.pop(route)&#xa;increment_version(f)&#xa;modified = True&#xa;metrics.flows_updated++" style="whiteSpace=wrap;strokeWidth=2;" vertex="1" parent="1">
          <mxGeometry x="1135" y="1024" width="240" height="150" as="geometry" />
        </mxCell>
        <mxCell id="8uNS08LPuNOPIwLh3YbV-11" value="" style="curved=1;startArrow=none;endArrow=block;exitX=0.5;exitY=1;entryX=0.5;entryY=0;rounded=0;exitDx=0;exitDy=0;" edge="1" parent="1" source="8uNS08LPuNOPIwLh3YbV-2" target="8uNS08LPuNOPIwLh3YbV-3">
          <mxGeometry relative="1" as="geometry">
            <Array as="points">
              <mxPoint x="1121" y="275" />
            </Array>
          </mxGeometry>
        </mxCell>
        <mxCell id="8uNS08LPuNOPIwLh3YbV-12" value="No" style="curved=1;startArrow=none;endArrow=block;exitX=0;exitY=0.92;entryX=0.19;entryY=0.01;rounded=0;" edge="1" parent="1" source="8uNS08LPuNOPIwLh3YbV-3" target="8uNS08LPuNOPIwLh3YbV-4">
          <mxGeometry relative="1" as="geometry">
            <Array as="points">
              <mxPoint x="990" y="482" />
              <mxPoint x="990" y="1199" />
            </Array>
          </mxGeometry>
        </mxCell>
        <mxCell id="8uNS08LPuNOPIwLh3YbV-13" value="Si" style="curved=1;startArrow=none;endArrow=block;exitX=0.73;exitY=1;entryX=0.5;entryY=0;rounded=0;" edge="1" parent="1" source="8uNS08LPuNOPIwLh3YbV-3" target="8uNS08LPuNOPIwLh3YbV-5">
          <mxGeometry relative="1" as="geometry">
            <Array as="points">
              <mxPoint x="1172" y="482" />
            </Array>
          </mxGeometry>
        </mxCell>
        <mxCell id="8uNS08LPuNOPIwLh3YbV-14" value="" style="curved=1;startArrow=none;endArrow=block;exitX=0.5;exitY=1;entryX=0.5;entryY=0;rounded=0;" edge="1" parent="1" source="8uNS08LPuNOPIwLh3YbV-5" target="8uNS08LPuNOPIwLh3YbV-6">
          <mxGeometry relative="1" as="geometry">
            <Array as="points" />
          </mxGeometry>
        </mxCell>
        <mxCell id="8uNS08LPuNOPIwLh3YbV-15" value="" style="curved=1;startArrow=none;endArrow=block;exitX=0.5;exitY=1;entryX=0.5;entryY=0;rounded=0;" edge="1" parent="1" source="8uNS08LPuNOPIwLh3YbV-6" target="8uNS08LPuNOPIwLh3YbV-7">
          <mxGeometry relative="1" as="geometry">
            <Array as="points" />
          </mxGeometry>
        </mxCell>
        <mxCell id="8uNS08LPuNOPIwLh3YbV-16" value="Si" style="curved=1;startArrow=none;endArrow=block;exitX=0.87;exitY=1;entryX=0.5;entryY=0;rounded=0;" edge="1" parent="1" source="8uNS08LPuNOPIwLh3YbV-7" target="8uNS08LPuNOPIwLh3YbV-8">
          <mxGeometry relative="1" as="geometry">
            <Array as="points">
              <mxPoint x="1255" y="988" />
            </Array>
          </mxGeometry>
        </mxCell>
        <mxCell id="8uNS08LPuNOPIwLh3YbV-17" value="No" style="curved=1;startArrow=none;endArrow=block;exitX=0.14;exitY=1;entryX=0.49;entryY=0.01;rounded=0;" edge="1" parent="1" source="8uNS08LPuNOPIwLh3YbV-7" target="8uNS08LPuNOPIwLh3YbV-4">
          <mxGeometry relative="1" as="geometry">
            <Array as="points">
              <mxPoint x="1088" y="988" />
              <mxPoint x="1088" y="1199" />
            </Array>
          </mxGeometry>
        </mxCell>
        <mxCell id="8uNS08LPuNOPIwLh3YbV-18" value="" style="curved=1;startArrow=none;endArrow=block;exitX=0.5;exitY=1;entryX=1;entryY=0.03;rounded=0;" edge="1" parent="1" source="8uNS08LPuNOPIwLh3YbV-8" target="8uNS08LPuNOPIwLh3YbV-4">
          <mxGeometry relative="1" as="geometry">
            <Array as="points">
              <mxPoint x="1255" y="1199" />
            </Array>
          </mxGeometry>
        </mxCell>
      </root>
    </mxGraphModel>
  </diagram>
</mxfile>
